# Blender 4.0.2
# www.blender.org
mtllib H1S4.mtl
g Plane_Plane
v -4.000000 0.000000 4.000000
v 4.000000 0.000000 4.000000
v -4.000000 0.000000 -4.000000
v 4.000000 0.000000 -4.000000
v 3.920000 0.000000 4.000000
v 3.920000 0.000000 -4.000000
v -3.920800 0.000000 -4.000000
v -3.920800 0.000000 4.000000
v -4.000000 0.000000 3.920000
v 4.000000 0.000000 3.920000
v 3.920000 0.000000 3.920000
v -3.920800 0.000000 3.920000
v 4.000000 0.000000 -3.920800
v 3.920000 0.000000 -3.920800
v -3.920800 0.000000 -3.920800
v -4.000000 0.000000 -3.920800
v -4.000000 0.078740 3.920000
v -4.000000 0.078740 4.000000
v 3.920000 0.078740 4.000000
v 4.000000 0.078740 4.000000
v 4.000000 0.078740 -3.920800
v 4.000000 0.078740 -4.000000
v -3.920800 0.078740 -4.000000
v -4.000000 0.078740 -4.000000
v -3.920800 0.078740 4.000000
v 3.920000 0.078740 -4.000000
v 3.920000 0.078740 -3.920800
v -3.920800 0.078740 -3.920800
v -4.000000 0.078740 -3.920800
v 4.000000 0.078740 3.920000
v 3.920000 0.078740 3.920000
v -3.920800 0.078740 3.920000
v -2.940700 0.000000 4.000000
v -1.960600 0.000000 4.000000
v -0.980500 0.000000 4.000000
v -0.000400 0.000000 4.000000
v 0.979700 0.000000 4.000000
v 1.959800 0.000000 4.000000
v 2.939900 0.000000 4.000000
v 2.939900 0.000000 -4.000000
v 1.959800 0.000000 -4.000000
v 0.979700 0.000000 -4.000000
v -0.000400 0.000000 -4.000000
v -0.980500 0.000000 -4.000000
v -1.960600 0.000000 -4.000000
v -2.940700 0.000000 -4.000000
v 2.939900 0.000000 3.920000
v 1.959800 0.000000 3.920000
v 0.979700 0.000000 3.920000
v -0.000400 0.000000 3.920000
v -0.980500 0.000000 3.920000
v -1.960600 0.000000 3.920000
v -2.940700 0.000000 3.920000
v 2.939900 0.000000 -3.920800
v 1.959800 0.000000 -3.920800
v 0.979700 0.000000 -3.920800
v -0.000400 0.000000 -3.920800
v -0.980500 0.000000 -3.920800
v -1.960600 0.000000 -3.920800
v -2.940700 0.000000 -3.920800
v -2.940700 0.078740 4.000000
v -1.960600 0.078740 4.000000
v -0.980500 0.078740 4.000000
v -0.000400 0.078740 4.000000
v 0.979700 0.078740 4.000000
v 1.959800 0.078740 4.000000
v 2.939900 0.078740 4.000000
v 2.939900 0.078740 -4.000000
v 1.959800 0.078740 -4.000000
v 0.979700 0.078740 -4.000000
v -0.000400 0.078740 -4.000000
v -0.980500 0.078740 -4.000000
v -1.960600 0.078740 -4.000000
v -2.940700 0.078740 -4.000000
v 2.939900 0.078740 3.920000
v 1.959800 0.078740 3.920000
v 0.979700 0.078740 3.920000
v -0.000400 0.078740 3.920000
v -0.980500 0.078740 3.920000
v -1.960600 0.078740 3.920000
v -2.940700 0.078740 3.920000
v 2.939900 0.078740 -3.920800
v 1.959800 0.078740 -3.920800
v 0.979700 0.078740 -3.920800
v -0.000400 0.078740 -3.920800
v -0.980500 0.078740 -3.920800
v -1.960600 0.078740 -3.920800
v -2.940700 0.078740 -3.920800
v -4.000000 0.000000 -2.940700
v -4.000000 0.000000 -1.960600
v -4.000000 0.000000 -0.980500
v -4.000000 0.000000 -0.000400
v -4.000000 0.000000 0.979700
v -4.000000 0.000000 1.959800
v -4.000000 0.000000 2.939900
v 4.000000 0.000000 2.939900
v 4.000000 0.000000 1.959800
v 4.000000 0.000000 0.979700
v 4.000000 0.000000 -0.000400
v 4.000000 0.000000 -0.980500
v 4.000000 0.000000 -1.960600
v 4.000000 0.000000 -2.940700
v 3.920000 0.000000 2.939900
v 3.920000 0.000000 1.959800
v 3.920000 0.000000 0.979700
v 3.920000 0.000000 -0.000400
v 3.920000 0.000000 -0.980500
v 3.920000 0.000000 -1.960600
v 3.920000 0.000000 -2.940700
v -3.920800 0.000000 2.939900
v -3.920800 0.000000 1.959800
v -3.920800 0.000000 0.979700
v -3.920800 0.000000 -0.000400
v -3.920800 0.000000 -0.980500
v -3.920800 0.000000 -1.960600
v -3.920800 0.000000 -2.940700
v -4.000000 0.078740 -2.940700
v -4.000000 0.078740 -1.960600
v -4.000000 0.078740 -0.980500
v -4.000000 0.078740 -0.000400
v -4.000000 0.078740 0.979700
v -4.000000 0.078740 1.959800
v -4.000000 0.078740 2.939900
v 4.000000 0.078740 2.939900
v 4.000000 0.078740 1.959800
v 4.000000 0.078740 0.979700
v 4.000000 0.078740 -0.000400
v 4.000000 0.078740 -0.980500
v 4.000000 0.078740 -1.960600
v 4.000000 0.078740 -2.940700
v 3.920000 0.078740 2.939900
v 3.920000 0.078740 1.959800
v 3.920000 0.078740 0.979700
v 3.920000 0.078740 -0.000400
v 3.920000 0.078740 -0.980500
v 3.920000 0.078740 -1.960600
v 3.920000 0.078740 -2.940700
v -3.920800 0.078740 2.939900
v -3.920800 0.078740 1.959800
v -3.920800 0.078740 0.979700
v -3.920800 0.078740 -0.000400
v -3.920800 0.078740 -0.980500
v -3.920800 0.078740 -1.960600
v -3.920800 0.078740 -2.940700
v -2.940700 0.078740 2.939900
v -2.940700 0.078740 1.959800
v -2.940700 0.078740 0.979700
v -2.940700 0.078740 -0.000400
v -2.940700 0.078740 -0.980500
v -2.940700 0.078740 -1.960600
v -2.940700 0.078740 -2.940700
v -1.960600 0.078740 2.939900
v -1.960600 0.078740 1.959800
v -1.960600 0.078740 0.979700
v -1.960600 0.078740 -0.000400
v -1.960600 0.078740 -0.980500
v -1.960600 0.078740 -1.960600
v -1.960600 0.078740 -2.940700
v -0.980500 0.078740 2.939900
v -0.980500 0.078740 1.959800
v -0.980500 0.078740 0.979700
v -0.980500 0.078740 -0.000400
v -0.980500 0.078740 -0.980500
v -0.980500 0.078740 -1.960600
v -0.980500 0.078740 -2.940700
v -0.000400 0.078740 2.939900
v -0.000400 0.078740 1.959800
v -0.000400 0.078740 0.979700
v -0.000400 0.078740 -0.000400
v -0.000400 0.078740 -0.980500
v -0.000400 0.078740 -1.960600
v -0.000400 0.078740 -2.940700
v 0.979700 0.078740 2.939900
v 0.979700 0.078740 1.959800
v 0.979700 0.078740 0.979700
v 0.979700 0.078740 -0.000400
v 0.979700 0.078740 -0.980500
v 0.979700 0.078740 -1.960600
v 0.979700 0.078740 -2.940700
v 1.959800 0.078740 2.939900
v 1.959800 0.078740 1.959800
v 1.959800 0.078740 0.979700
v 1.959800 0.078740 -0.000400
v 1.959800 0.078740 -0.980500
v 1.959800 0.078740 -1.960600
v 1.959800 0.078740 -2.940700
v 2.939900 0.078740 2.939900
v 2.939900 0.078740 1.959800
v 2.939900 0.078740 0.979700
v 2.939900 0.078740 -0.000400
v 2.939900 0.078740 -0.980500
v 2.939900 0.078740 -1.960600
v 2.939900 0.078740 -2.940700
v -2.940700 0.000000 -2.940700
v -2.940700 0.000000 -1.960600
v -2.940700 0.000000 -0.980500
v -2.940700 0.000000 -0.000400
v -2.940700 0.000000 0.979700
v -2.940700 0.000000 1.959800
v -2.940700 0.000000 2.939900
v -1.960600 0.000000 -2.940700
v -1.960600 0.000000 -1.960600
v -1.960600 0.000000 -0.980500
v -1.960600 0.000000 -0.000400
v -1.960600 0.000000 0.979700
v -1.960600 0.000000 1.959800
v -1.960600 0.000000 2.939900
v -0.980500 0.000000 -2.940700
v -0.980500 0.000000 -1.960600
v -0.980500 0.000000 -0.980500
v -0.980500 0.000000 -0.000400
v -0.980500 0.000000 0.979700
v -0.980500 0.000000 1.959800
v -0.980500 0.000000 2.939900
v -0.000400 0.000000 -2.940700
v -0.000400 0.000000 -1.960600
v -0.000400 0.000000 -0.980500
v -0.000400 0.000000 -0.000400
v -0.000400 0.000000 0.979700
v -0.000400 0.000000 1.959800
v -0.000400 0.000000 2.939900
v 0.979700 0.000000 -2.940700
v 0.979700 0.000000 -1.960600
v 0.979700 0.000000 -0.980500
v 0.979700 0.000000 -0.000400
v 0.979700 0.000000 0.979700
v 0.979700 0.000000 1.959800
v 0.979700 0.000000 2.939900
v 1.959800 0.000000 -2.940700
v 1.959800 0.000000 -1.960600
v 1.959800 0.000000 -0.980500
v 1.959800 0.000000 -0.000400
v 1.959800 0.000000 0.979700
v 1.959800 0.000000 1.959800
v 1.959800 0.000000 2.939900
v 2.939900 0.000000 -2.940700
v 2.939900 0.000000 -1.960600
v 2.939900 0.000000 -0.980500
v 2.939900 0.000000 -0.000400
v 2.939900 0.000000 0.979700
v 2.939900 0.000000 1.959800
v 2.939900 0.000000 2.939900
v -4.000000 1.078740 3.920000
v -4.000000 1.078740 4.000000
v 3.920000 1.078740 4.000000
v 4.000000 1.078740 4.000000
v 4.000000 1.078740 -3.920800
v 4.000000 1.078740 -4.000000
v -3.920800 1.078740 -4.000000
v -4.000000 1.078740 -4.000000
v 2.939900 1.078740 4.000000
v 3.920000 1.078740 -4.000000
v 3.920000 1.078740 -3.920800
v -2.940700 1.078740 -4.000000
v -3.920800 1.078740 4.000000
v -3.920800 1.078740 -3.920800
v -4.000000 1.078740 2.939900
v 4.000000 1.078740 3.920000
v 3.920000 1.078740 3.920000
v -3.920800 1.078740 3.920000
v -2.940700 1.078740 3.920000
v 4.000000 1.078740 -2.940700
v 3.920000 1.078740 -2.940700
v -3.920800 1.078740 -2.940700
v -4.000000 1.078740 -3.920800
v -2.940700 1.078740 -3.920800
v -2.940700 1.078740 4.000000
v -1.960600 1.078740 4.000000
v -0.980500 1.078740 4.000000
v -0.000400 1.078740 4.000000
v 0.979700 1.078740 4.000000
v 1.959800 1.078740 4.000000
v 2.939900 1.078740 -4.000000
v 1.959800 1.078740 -4.000000
v 0.979700 1.078740 -4.000000
v -0.000400 1.078740 -4.000000
v -0.980500 1.078740 -4.000000
v -1.960600 1.078740 -4.000000
v 2.939900 1.078740 3.920000
v 1.959800 1.078740 3.920000
v 0.979700 1.078740 3.920000
v -0.000400 1.078740 3.920000
v -0.980500 1.078740 3.920000
v -1.960600 1.078740 3.920000
v 2.939900 1.078740 -3.920800
v 1.959800 1.078740 -3.920800
v 0.979700 1.078740 -3.920800
v -0.000400 1.078740 -3.920800
v -0.980500 1.078740 -3.920800
v -1.960600 1.078740 -3.920800
v -4.000000 1.078740 -2.940700
v -4.000000 1.078740 -1.960600
v -4.000000 1.078740 -0.980500
v -4.000000 1.078740 -0.000400
v -4.000000 1.078740 0.979700
v -4.000000 1.078740 1.959800
v 4.000000 1.078740 2.939900
v 4.000000 1.078740 1.959800
v 4.000000 1.078740 0.979700
v 4.000000 1.078740 -0.000400
v 4.000000 1.078740 -0.980500
v 4.000000 1.078740 -1.960600
v 3.920000 1.078740 2.939900
v 3.920000 1.078740 1.959800
v 3.920000 1.078740 0.979700
v 3.920000 1.078740 -0.000400
v 3.920000 1.078740 -0.980500
v 3.920000 1.078740 -1.960600
v -3.920800 1.078740 2.939900
v -3.920800 1.078740 1.959800
v -3.920800 1.078740 0.979700
v -3.920800 1.078740 -0.000400
v -3.920800 1.078740 -0.980500
v -3.920800 1.078740 -1.960600
v -4.000000 2.078740 3.920000
v -4.000000 2.078740 4.000000
v 3.920000 2.078740 4.000000
v 4.000000 2.078740 4.000000
v 4.000000 2.078740 -3.920800
v 4.000000 2.078740 -4.000000
v -3.920800 2.078740 -4.000000
v -4.000000 2.078740 -4.000000
v 2.939900 2.078740 4.000000
v 3.920000 2.078740 -4.000000
v 3.920000 2.078740 -3.920800
v -2.940700 2.078740 -4.000000
v -3.920800 2.078740 4.000000
v -3.920800 2.078740 -3.920800
v -4.000000 2.078740 2.939900
v 4.000000 2.078740 3.920000
v 3.920000 2.078740 3.920000
v -3.920800 2.078740 3.920000
v -2.940700 2.078740 3.920000
v 4.000000 2.078740 -2.940700
v 3.920000 2.078740 -2.940700
v -3.920800 2.078740 -2.940700
v -4.000000 2.078740 -3.920800
v -2.940700 2.078740 -3.920800
v -2.940700 2.078740 4.000000
v -0.980500 2.078740 4.000000
v -0.000400 2.078740 4.000000
v 0.979700 2.078740 4.000000
v 1.959800 2.078740 4.000000
v 2.939900 2.078740 -4.000000
v 0.979700 2.078740 -4.000000
v -0.000400 2.078740 -4.000000
v -0.980500 2.078740 -4.000000
v -1.960600 2.078740 -4.000000
v 2.939900 2.078740 3.920000
v 1.959800 2.078740 3.920000
v 0.979700 2.078740 3.920000
v -0.000400 2.078740 3.920000
v -0.980500 2.078740 3.920000
v 2.939900 2.078740 -3.920800
v 0.979700 2.078740 -3.920800
v -0.000400 2.078740 -3.920800
v -0.980500 2.078740 -3.920800
v -1.960600 2.078740 -3.920800
v -4.000000 2.078740 -2.940700
v -4.000000 2.078740 -1.960600
v -4.000000 2.078740 -0.980500
v -4.000000 2.078740 -0.000400
v -4.000000 2.078740 0.979700
v -4.000000 2.078740 1.959800
v 4.000000 2.078740 2.939900
v 4.000000 2.078740 1.959800
v 4.000000 2.078740 0.979700
v 4.000000 2.078740 -0.000400
v 4.000000 2.078740 -0.980500
v 4.000000 2.078740 -1.960600
v 3.920000 2.078740 2.939900
v 3.920000 2.078740 1.959800
v 3.920000 2.078740 0.979700
v 3.920000 2.078740 -0.000400
v 3.920000 2.078740 -0.980500
v 3.920000 2.078740 -1.960600
v -3.920800 2.078740 2.939900
v -3.920800 2.078740 1.959800
v -3.920800 2.078740 0.979700
v -3.920800 2.078740 -0.000400
v -3.920800 2.078740 -0.980500
v -3.920800 2.078740 -1.960600
v -4.000000 3.078740 3.920000
v -4.000000 3.078740 4.000000
v 3.920000 3.078740 4.000000
v 4.000000 3.078740 4.000000
v 4.000000 3.078740 -3.920800
v 4.000000 3.078740 -4.000000
v -3.920800 3.078740 -4.000000
v -4.000000 3.078740 -4.000000
v 2.939900 3.078740 4.000000
v 3.920000 3.078740 -4.000000
v 3.920000 3.078740 -3.920800
v -2.940700 3.078740 -4.000000
v -3.920800 3.078740 4.000000
v -3.920800 3.078740 -3.920800
v -4.000000 3.078740 2.939900
v 4.000000 3.078740 3.920000
v 3.920000 3.078740 3.920000
v -3.920800 3.078740 3.920000
v -2.940700 3.078740 3.920000
v 4.000000 3.078740 -2.940700
v 3.920000 3.078740 -2.940700
v -3.920800 3.078740 -2.940700
v -4.000000 3.078740 -3.920800
v -2.940700 3.078740 -3.920800
v -2.940700 3.078740 4.000000
v -0.980500 3.078740 4.000000
v -0.000400 3.078740 4.000000
v 0.979700 3.078740 4.000000
v 1.959800 3.078740 4.000000
v 2.939900 3.078740 -4.000000
v 0.979700 3.078740 -4.000000
v -0.000400 3.078740 -4.000000
v -0.980500 3.078740 -4.000000
v -1.960600 3.078740 -4.000000
v 2.939900 3.078740 3.920000
v 1.959800 3.078740 3.920000
v 0.979700 3.078740 3.920000
v -0.000400 3.078740 3.920000
v -0.980500 3.078740 3.920000
v 2.939900 3.078740 -3.920800
v 0.979700 3.078740 -3.920800
v -0.000400 3.078740 -3.920800
v -0.980500 3.078740 -3.920800
v -1.960600 3.078740 -3.920800
v -4.000000 3.078740 -2.940700
v -4.000000 3.078740 -1.960600
v -4.000000 3.078740 -0.980500
v -4.000000 3.078740 -0.000400
v -4.000000 3.078740 0.979700
v -4.000000 3.078740 1.959800
v 4.000000 3.078740 2.939900
v 4.000000 3.078740 1.959800
v 4.000000 3.078740 0.979700
v 4.000000 3.078740 -0.000400
v 4.000000 3.078740 -0.980500
v 4.000000 3.078740 -1.960600
v 3.920000 3.078740 2.939900
v 3.920000 3.078740 1.959800
v 3.920000 3.078740 0.979700
v 3.920000 3.078740 -0.000400
v 3.920000 3.078740 -0.980500
v 3.920000 3.078740 -1.960600
v -3.920800 3.078740 2.939900
v -3.920800 3.078740 1.959800
v -3.920800 3.078740 0.979700
v -3.920800 3.078740 -0.000400
v -3.920800 3.078740 -0.980500
v -3.920800 3.078740 -1.960600
v 3.920000 4.078740 4.000000
v 4.000000 4.078740 4.000000
v -3.920800 4.078740 -4.000000
v -4.000000 4.078740 -4.000000
v 2.939900 4.078740 4.000000
v -2.940700 4.078740 -4.000000
v -3.920800 4.078740 -3.920800
v 4.000000 4.078740 3.920000
v 3.920000 4.078740 3.920000
v -3.920800 4.078740 -2.940700
v -4.000000 4.078740 -3.920800
v -2.940700 4.078740 -3.920800
v -0.980500 4.078740 4.000000
v -0.000400 4.078740 4.000000
v 0.979700 4.078740 4.000000
v 1.959800 4.078740 4.000000
v 0.979700 4.078740 -4.000000
v -0.000400 4.078740 -4.000000
v -0.980500 4.078740 -4.000000
v -1.960600 4.078740 -4.000000
v 2.939900 4.078740 3.920000
v 1.959800 4.078740 3.920000
v 0.979700 4.078740 3.920000
v -0.000400 4.078740 3.920000
v -0.980500 4.078740 3.920000
v 0.979700 4.078740 -3.920800
v -0.000400 4.078740 -3.920800
v -0.980500 4.078740 -3.920800
v -1.960600 4.078740 -3.920800
v -4.000000 4.078740 -2.940700
v -4.000000 4.078740 -1.960600
v -4.000000 4.078740 -0.980500
v -4.000000 4.078740 -0.000400
v 4.000000 4.078740 2.939900
v 4.000000 4.078740 1.959800
v 4.000000 4.078740 0.979700
v 4.000000 4.078740 -0.000400
v 3.920000 4.078740 2.939900
v 3.920000 4.078740 1.959800
v 3.920000 4.078740 0.979700
v 3.920000 4.078740 -0.000400
v -3.920800 4.078740 -0.000400
v -3.920800 4.078740 -0.980500
v -3.920800 4.078740 -1.960600
v 3.920000 5.078740 4.000000
v 4.000000 5.078740 4.000000
v -3.920800 5.078740 -4.000000
v -4.000000 5.078740 -4.000000
v 2.939900 5.078740 4.000000
v -2.940700 5.078740 -4.000000
v -3.920800 5.078740 -3.920800
v 4.000000 5.078740 3.920000
v 3.920000 5.078740 3.920000
v -3.920800 5.078740 -2.940700
v -4.000000 5.078740 -3.920800
v -2.940700 5.078740 -3.920800
v -0.980500 5.078740 4.000000
v -0.000400 5.078740 4.000000
v 0.979700 5.078740 -4.000000
v -0.000400 5.078740 -4.000000
v 2.939900 5.078740 3.920000
v -0.000400 5.078740 3.920000
v -0.980500 5.078740 3.920000
v 0.979700 5.078740 -3.920800
v -0.000400 5.078740 -3.920800
v -4.000000 5.078740 -2.940700
v -4.000000 5.078740 -0.980500
v -4.000000 5.078740 -0.000400
v 4.000000 5.078740 2.939900
v 4.000000 5.078740 0.979700
v 4.000000 5.078740 -0.000400
v 3.920000 5.078740 2.939900
v 3.920000 5.078740 0.979700
v 3.920000 5.078740 -0.000400
v -3.920800 5.078740 -0.000400
v -3.920800 5.078740 -0.980500
v 3.920000 6.078740 4.000000
v 4.000000 6.078740 4.000000
v -3.920800 6.078740 -4.000000
v -4.000000 6.078740 -4.000000
v 2.939900 6.078740 4.000000
v -2.940700 6.078740 -4.000000
v -3.920800 6.078740 -3.920800
v 4.000000 6.078740 3.920000
v 3.920000 6.078740 3.920000
v -3.920800 6.078740 -2.940700
v -4.000000 6.078740 -3.920800
v -2.940700 6.078740 -3.920800
v -0.980500 6.078740 4.000000
v -0.000400 6.078740 4.000000
v 0.979700 6.078740 -4.000000
v -0.000400 6.078740 -4.000000
v 2.939900 6.078740 3.920000
v -0.000400 6.078740 3.920000
v -0.980500 6.078740 3.920000
v 0.979700 6.078740 -3.920800
v -0.000400 6.078740 -3.920800
v -4.000000 6.078740 -2.940700
v -4.000000 6.078740 -0.980500
v -4.000000 6.078740 -0.000400
v 4.000000 6.078740 2.939900
v 4.000000 6.078740 0.979700
v 4.000000 6.078740 -0.000400
v 3.920000 6.078740 2.939900
v 3.920000 6.078740 0.979700
v 3.920000 6.078740 -0.000400
v -3.920800 6.078740 -0.000400
v -3.920800 6.078740 -0.980500
v -1.960600 2.967735 -3.920800
v -3.920800 2.967735 2.939900
v -2.940700 2.967735 -3.920800
v 3.920000 2.967735 -2.940700
v -2.940700 2.967735 3.920000
v -3.920800 2.967735 3.920000
v 2.939900 2.967735 3.920000
v 3.920000 2.967735 -1.960600
v 1.959800 2.967735 3.920000
v 3.920000 2.967735 -0.980500
v 0.979700 2.967735 3.920000
v 3.920000 2.967735 -0.000400
v -0.000400 2.967735 3.920000
v 3.920000 2.967735 0.979700
v 3.920000 2.967735 1.959800
v -3.920800 2.967735 1.959800
v -0.980500 2.967735 -3.920800
v 3.920000 2.967735 -3.920800
v -3.920800 2.967735 0.979700
v -0.000400 2.967735 -3.920800
v -3.920800 2.967735 -3.920800
v -3.920800 2.967735 -2.940700
v -3.920800 2.967735 -0.000400
v 0.979700 2.967735 -3.920800
v -3.920800 2.967735 -0.980500
v 2.939900 2.967735 -3.920800
v -3.920800 2.967735 -1.960600
v 3.920000 2.967735 3.920000
v -0.980500 2.967735 3.920000
v 3.920000 2.967735 2.939900
v -2.989546 3.078740 -2.940700
v -2.989546 3.078740 -3.920800
v -2.989546 3.078740 -0.000400
v -2.989546 3.078740 -0.980500
v -2.989546 3.078740 -1.960600
v -2.989546 2.967735 -3.920800
v -2.989546 2.967735 -0.000400
v -2.989546 2.967735 -0.980500
v -2.989546 2.967735 -1.960600
v -2.989546 2.967735 -2.940700
v -1.960600 2.967735 -2.920800
v -1.960600 3.078740 -2.920800
v 0.979700 3.078740 -2.920800
v -0.000400 3.078740 -2.920800
v -0.980500 3.078740 -2.920800
v -0.000400 2.967735 -2.920800
v -2.940700 3.078740 -2.920800
v -2.940700 2.967735 -2.920800
v -0.980500 2.967735 -2.920800
v 0.979700 2.967735 -2.920800
v 3.008509 2.967735 1.959800
v 3.008509 3.078740 1.959800
v 3.008509 3.078740 3.920000
v 3.008509 3.078740 2.939900
v 3.008509 3.078740 0.979700
v 3.008509 3.078740 -0.000400
v 3.008509 2.967735 -0.000400
v 3.008509 2.967735 0.979700
v 3.008509 2.967735 3.920000
v 3.008509 2.967735 2.939900
v 1.959800 2.967735 2.920000
v 1.959800 3.078740 2.920000
v -0.000400 2.967735 2.920000
v -0.000400 3.078740 2.920000
v 0.979700 3.078740 2.920000
v -0.980500 3.078740 2.920000
v -0.980500 2.967735 2.920000
v 2.939900 3.078740 2.920000
v 2.939900 2.967735 2.920000
v 0.979700 2.967735 2.920000
vn -0.0000 -1.0000 -0.0000
vn -1.0000 -0.0000 -0.0000
vn -0.0000 -0.0000 -1.0000
vn 1.0000 -0.0000 -0.0000
vn -0.0000 1.0000 -0.0000
vn -0.0000 -0.0000 1.0000
vt 0.003378 0.334471
vt 0.003378 0.337815
vt 0.000000 0.337815
vt 0.000000 0.334471
vt 0.044765 0.334471
vt 0.044765 0.337815
vt 0.337815 0.334471
vt 0.337815 0.337815
vt 0.334471 0.337815
vt 0.334471 0.334471
vt 0.337815 0.000000
vt 0.337815 0.003378
vt 0.334471 0.003378
vt 0.334471 0.000000
vt 0.044765 0.000000
vt 0.044765 0.003378
vt 0.003378 0.003378
vt 0.003378 0.000000
vt 0.000000 0.003378
vt 0.000000 0.000000
vt 0.337815 0.293084
vt 0.334471 0.293084
vt 0.044765 0.293084
vt 0.003378 0.293084
vt 0.000000 0.293084
vt 0.050492 0.689761
vt 0.084258 0.689761
vt 0.084258 0.738482
vt 0.050492 0.738482
vt 0.241279 0.681745
vt 0.276098 0.681745
vt 0.276098 0.731986
vt 0.241279 0.731986
vt 0.137965 0.958128
vt 0.079793 0.958128
vt 0.079793 0.874193
vt 0.137965 0.874193
vt 0.021622 0.958128
vt 0.021622 0.874193
vt 0.016726 0.689761
vt 0.016726 0.738482
vt 0.206459 0.681745
vt 0.206459 0.731986
vt 0.196136 0.958128
vt 0.196136 0.874193
vt 0.304323 0.602478
vt 0.345709 0.602478
vt 0.345709 0.643864
vt 0.304323 0.643864
vt 0.841211 0.697890
vt 0.844604 0.690093
vt 0.869035 0.777023
vt 0.863025 0.777679
vt 0.263924 0.684621
vt 0.297987 0.684621
vt 0.297987 0.688491
vt 0.263924 0.688491
vt 0.022047 0.690076
vt 0.024792 0.690076
vt 0.024792 0.693896
vt 0.022047 0.693896
vt 0.300768 0.684621
vt 0.300768 0.688491
vt 0.022729 0.684621
vt 0.025481 0.684621
vt 0.025481 0.688491
vt 0.022729 0.688491
vt 0.203617 0.677789
vt 0.206459 0.677789
vt 0.203617 0.681745
vt 0.293760 0.690076
vt 0.296477 0.690076
vt 0.296477 0.693896
vt 0.293760 0.693896
vt 0.013998 0.685925
vt 0.016726 0.685925
vt 0.013998 0.689761
vt 0.485014 0.677789
vt 0.487828 0.677789
vt 0.487828 0.681745
vt 0.485014 0.681745
vt 0.253088 0.685925
vt 0.286853 0.685925
vt 0.286853 0.689761
vt 0.253088 0.689761
vt 0.260139 0.690076
vt 0.260139 0.693896
vt 0.289610 0.685925
vt 0.289610 0.689761
vt 0.450195 0.677789
vt 0.450195 0.681745
vt 0.241279 0.677789
vt 0.276098 0.677789
vt 0.310917 0.677789
vt 0.310917 0.681745
vt 0.345737 0.677789
vt 0.345737 0.681745
vt 0.380556 0.677789
vt 0.380556 0.681745
vt 0.415375 0.677789
vt 0.415375 0.681745
vt 0.059544 0.684621
vt 0.059544 0.688491
vt 0.093608 0.684621
vt 0.093608 0.688491
vt 0.127671 0.684621
vt 0.127671 0.688491
vt 0.161734 0.684621
vt 0.161734 0.688491
vt 0.195797 0.684621
vt 0.195797 0.688491
vt 0.229861 0.684621
vt 0.229861 0.688491
vt 0.014617 0.602478
vt 0.056003 0.602478
vt 0.056003 0.643864
vt 0.014617 0.643864
vt 0.097390 0.602478
vt 0.097390 0.643864
vt 0.138776 0.602478
vt 0.138776 0.643864
vt 0.180163 0.602478
vt 0.180163 0.643864
vt 0.221549 0.602478
vt 0.221549 0.643864
vt 0.262936 0.602478
vt 0.262936 0.643864
vt 0.024444 0.701087
vt 0.082608 0.701087
vt 0.082608 0.785011
vt 0.024444 0.785011
vt 0.263924 0.737641
vt 0.229861 0.737641
vt 0.254307 0.958128
vt 0.254307 0.874193
vt 0.791904 0.696185
vt 0.795911 0.701476
vt 0.791539 0.783330
vt 0.785756 0.783987
vt 0.760259 0.696117
vt 0.714769 0.697486
vt 0.710459 0.690093
vt 0.763669 0.690093
vt 0.293760 0.742408
vt 0.260139 0.742408
vt 0.195797 0.737641
vt 0.312478 0.958128
vt 0.312478 0.874193
vt 0.370650 0.958128
vt 0.370650 0.874193
vt 0.419561 0.714932
vt 0.476201 0.714932
vt 0.476201 0.796658
vt 0.419561 0.796658
vt 0.161734 0.737641
vt 0.127671 0.737641
vt 0.428821 0.958128
vt 0.428821 0.874193
vt 0.093608 0.737641
vt 0.293084 0.334471
vt 0.293084 0.293084
vt 0.251698 0.334471
vt 0.251698 0.293084
vt 0.210311 0.334471
vt 0.210311 0.293084
vt 0.168924 0.334471
vt 0.168924 0.293084
vt 0.127538 0.334471
vt 0.127538 0.293084
vt 0.086151 0.334471
vt 0.086151 0.293084
vt 0.293084 0.003378
vt 0.293084 0.000000
vt 0.251698 0.003378
vt 0.251698 0.000000
vt 0.210311 0.003378
vt 0.210311 0.000000
vt 0.168924 0.003378
vt 0.168924 0.000000
vt 0.127538 0.003378
vt 0.127538 0.000000
vt 0.086151 0.003378
vt 0.086151 0.000000
vt 0.293084 0.337815
vt 0.251698 0.337815
vt 0.210311 0.337815
vt 0.168924 0.337815
vt 0.127538 0.337815
vt 0.086151 0.337815
vt 0.086151 0.044765
vt 0.044765 0.044765
vt 0.086151 0.086151
vt 0.044765 0.086151
vt 0.086151 0.127538
vt 0.044765 0.127538
vt 0.086151 0.168924
vt 0.044765 0.168924
vt 0.086151 0.210311
vt 0.044765 0.210311
vt 0.086151 0.251698
vt 0.044765 0.251698
vt 0.127538 0.044765
vt 0.127538 0.086151
vt 0.127538 0.127538
vt 0.127538 0.168924
vt 0.127538 0.210311
vt 0.127538 0.251698
vt 0.168924 0.044765
vt 0.168924 0.086151
vt 0.168924 0.127538
vt 0.168924 0.168924
vt 0.168924 0.210311
vt 0.168924 0.251698
vt 0.210311 0.044765
vt 0.210311 0.086151
vt 0.210311 0.127538
vt 0.210311 0.168924
vt 0.210311 0.210311
vt 0.210311 0.251698
vt 0.251698 0.044765
vt 0.251698 0.086151
vt 0.251698 0.127538
vt 0.251698 0.168924
vt 0.251698 0.210311
vt 0.251698 0.251698
vt 0.293084 0.044765
vt 0.293084 0.086151
vt 0.293084 0.127538
vt 0.293084 0.168924
vt 0.293084 0.210311
vt 0.293084 0.251698
vt 0.334471 0.044765
vt 0.334471 0.086151
vt 0.334471 0.127538
vt 0.334471 0.168924
vt 0.334471 0.210311
vt 0.334471 0.251698
vt 0.262936 0.565912
vt 0.304323 0.565912
vt 0.304323 0.607299
vt 0.262936 0.607299
vt 0.304323 0.648685
vt 0.262936 0.648685
vt 0.262936 0.567821
vt 0.304323 0.567821
vt 0.304323 0.609208
vt 0.262936 0.609208
vt 0.304323 0.650594
vt 0.262936 0.650594
vt 0.262936 0.548635
vt 0.304323 0.548635
vt 0.304323 0.590021
vt 0.262936 0.590021
vt 0.304323 0.631408
vt 0.262936 0.631408
vt 0.262936 0.561091
vt 0.304323 0.561091
vt 0.221549 0.565912
vt 0.221549 0.607299
vt 0.221549 0.648685
vt 0.221549 0.567821
vt 0.221549 0.609208
vt 0.221549 0.650594
vt 0.221549 0.548635
vt 0.221549 0.590021
vt 0.221549 0.631408
vt 0.221549 0.561091
vt 0.180163 0.565912
vt 0.180163 0.607299
vt 0.180163 0.648685
vt 0.180163 0.567821
vt 0.180163 0.609208
vt 0.180163 0.650594
vt 0.180163 0.548635
vt 0.180163 0.590021
vt 0.180163 0.631408
vt 0.180163 0.561091
vt 0.138776 0.565912
vt 0.138776 0.607299
vt 0.138776 0.648685
vt 0.138776 0.567821
vt 0.138776 0.609208
vt 0.138776 0.650594
vt 0.138776 0.548635
vt 0.138776 0.590021
vt 0.138776 0.631408
vt 0.138776 0.561091
vt 0.097390 0.565912
vt 0.097390 0.607299
vt 0.097390 0.648685
vt 0.097390 0.567821
vt 0.097390 0.609208
vt 0.097390 0.650594
vt 0.097390 0.548635
vt 0.097390 0.590021
vt 0.097390 0.631408
vt 0.097390 0.561091
vt 0.056003 0.565912
vt 0.056003 0.607299
vt 0.056003 0.648685
vt 0.056003 0.567821
vt 0.056003 0.609208
vt 0.056003 0.650594
vt 0.056003 0.548635
vt 0.056003 0.590021
vt 0.056003 0.631408
vt 0.056003 0.561091
vt 0.014617 0.565912
vt 0.014617 0.607299
vt 0.014617 0.648685
vt 0.014617 0.567821
vt 0.014617 0.609208
vt 0.014617 0.650594
vt 0.014617 0.548635
vt 0.014617 0.590021
vt 0.014617 0.631408
vt 0.014617 0.561091
vt 0.058413 0.690076
vt 0.058413 0.693896
vt 0.092034 0.690076
vt 0.092034 0.693896
vt 0.125655 0.690076
vt 0.125655 0.693896
vt 0.159276 0.690076
vt 0.159276 0.693896
vt 0.192897 0.690076
vt 0.192897 0.693896
vt 0.226518 0.690076
vt 0.226518 0.693896
vt 0.050492 0.685925
vt 0.084258 0.685925
vt 0.118024 0.685925
vt 0.118024 0.689761
vt 0.151790 0.685925
vt 0.151790 0.689761
vt 0.185556 0.685925
vt 0.185556 0.689761
vt 0.219322 0.685925
vt 0.219322 0.689761
vt 0.486992 0.958128
vt 0.486992 0.874193
vt 0.059545 0.737641
vt 0.140771 0.701087
vt 0.140772 0.785011
vt 0.077969 0.707223
vt 0.136748 0.707223
vt 0.136748 0.792035
vt 0.077969 0.792035
vt 0.708442 0.781312
vt 0.702369 0.781976
vt 0.025481 0.737641
vt 0.198935 0.701087
vt 0.198935 0.785011
vt 0.345709 0.565912
vt 0.345709 0.607299
vt 0.345709 0.648685
vt 0.345709 0.567821
vt 0.345709 0.609208
vt 0.345709 0.650594
vt 0.345709 0.548635
vt 0.345709 0.590021
vt 0.345709 0.631408
vt 0.345709 0.561091
vt 0.195528 0.707223
vt 0.195528 0.792035
vt 0.785756 0.774968
vt 0.779912 0.775632
vt 0.024792 0.742408
vt 0.022047 0.742408
vt 0.257099 0.701087
vt 0.257099 0.785011
vt 0.286853 0.738482
vt 0.253088 0.738482
vt 0.315263 0.701087
vt 0.315263 0.785011
vt 0.254307 0.707223
vt 0.313086 0.707223
vt 0.313086 0.792035
vt 0.254307 0.792035
vt 0.003378 0.044765
vt 0.000000 0.044765
vt 0.003378 0.086151
vt 0.000000 0.086151
vt 0.003378 0.127538
vt 0.000000 0.127538
vt 0.003378 0.168924
vt 0.000000 0.168924
vt 0.003378 0.210311
vt 0.000000 0.210311
vt 0.003378 0.251698
vt 0.000000 0.251698
vt 0.337815 0.044765
vt 0.337815 0.086151
vt 0.337815 0.127538
vt 0.337815 0.168924
vt 0.337815 0.210311
vt 0.337815 0.251698
vt 0.310917 0.731986
vt 0.345737 0.731986
vt 0.345737 0.782226
vt 0.310917 0.782226
vt 0.676117 0.690093
vt 0.673532 0.696876
vt 0.630427 0.714719
vt 0.625789 0.709239
vt 0.312478 0.790259
vt 0.370650 0.790259
vt 0.860953 0.868824
vt 0.856687 0.861508
vt 0.428821 0.790259
vt 0.203617 0.731986
vt 0.206459 0.782226
vt 0.203617 0.782226
vt 0.811184 0.862863
vt 0.807808 0.868824
vt 0.486992 0.790259
vt 0.297987 0.737641
vt 0.297987 0.786790
vt 0.263924 0.786790
vt 0.559476 0.703458
vt 0.553960 0.786240
vt 0.548637 0.787428
vt 0.554400 0.694425
vt 0.577409 0.865816
vt 0.574345 0.873023
vt 0.241279 0.782226
vt 0.685809 0.885320
vt 0.692353 0.876464
vt 0.692907 0.976123
vt 0.687645 0.966172
vt 0.763474 0.886947
vt 0.707685 0.879011
vt 0.702369 0.868957
vt 0.769568 0.880425
vt 0.140772 0.868935
vt 0.082608 0.868935
vt 0.625789 0.872503
vt 0.630477 0.879586
vt 0.485014 0.731986
vt 0.487828 0.731986
vt 0.487828 0.782226
vt 0.485014 0.782226
vt 0.631820 0.958212
vt 0.625789 0.964666
vt 0.702369 0.770013
vt 0.696346 0.771902
vt 0.698083 0.867652
vt 0.692665 0.858540
vt 0.198935 0.868935
vt 0.296477 0.742408
vt 0.296477 0.790919
vt 0.293760 0.790919
vt 0.229861 0.786790
vt 0.195797 0.786790
vt 0.709534 0.959806
vt 0.702922 0.968757
vt 0.257099 0.868935
vt 0.300768 0.737641
vt 0.300768 0.786790
vt 0.161734 0.786790
vt 0.127671 0.786790
vt 0.769568 0.972684
vt 0.764832 0.965531
vt 0.315263 0.868935
vt 0.289610 0.738482
vt 0.289610 0.787202
vt 0.286853 0.787202
vt 0.730264 0.861076
vt 0.726836 0.868957
vt 0.373427 0.785011
vt 0.373427 0.868935
vt 0.779601 0.862828
vt 0.775554 0.857484
vt 0.431590 0.785011
vt 0.431590 0.868935
vt 0.013998 0.738482
vt 0.118024 0.738482
vt 0.151790 0.738482
vt 0.019190 0.707223
vt 0.019190 0.792035
vt 0.185556 0.738482
vt 0.415375 0.731986
vt 0.380556 0.731986
vt 0.219322 0.738482
vt 0.450195 0.731986
vt 0.023080 0.714932
vt 0.079720 0.714932
vt 0.079720 0.796658
vt 0.023080 0.796658
vt 0.058413 0.742408
vt 0.136360 0.714932
vt 0.136360 0.796658
vt 0.092034 0.742408
vt 0.193000 0.714932
vt 0.193001 0.796658
vt 0.125655 0.742408
vt 0.159276 0.742408
vt 0.249641 0.714932
vt 0.306281 0.714932
vt 0.306281 0.796658
vt 0.249641 0.796658
vt 0.192897 0.742408
vt 0.362921 0.714932
vt 0.362921 0.796658
vt 0.226518 0.742408
vt 0.430645 0.707223
vt 0.489425 0.707223
vt 0.489425 0.792035
vt 0.430645 0.792035
vt 0.431590 0.701087
vt 0.489754 0.701087
vt 0.489754 0.785011
vt 0.371866 0.707223
vt 0.371866 0.792035
vt 0.373426 0.701087
vt 0.022729 0.737641
vt 0.031620 0.537375
vt 0.090400 0.537375
vt 0.090400 0.546790
vt 0.031620 0.546790
vt 0.016726 0.787202
vt 0.050492 0.787202
vt 0.050492 0.835923
vt 0.016726 0.835923
vt 0.196136 0.715641
vt 0.137965 0.715641
vt 0.346616 0.981494
vt 0.346616 0.984261
vt 0.298203 0.984261
vt 0.298203 0.981494
vt 0.079793 0.715641
vt 0.021622 0.715641
vt 0.013998 0.787202
vt 0.013998 0.835923
vt 0.430645 0.952244
vt 0.430645 0.961659
vt 0.313086 0.961659
vt 0.313086 0.952244
vt 0.312478 0.715641
vt 0.254307 0.715641
vt 0.254307 0.706324
vt 0.312478 0.706324
vt 0.382866 0.729116
vt 0.436201 0.729116
vt 0.436201 0.806073
vt 0.382866 0.806073
vt 0.370649 0.715641
vt 0.370649 0.706324
vt 0.024444 0.943543
vt 0.082608 0.943543
vt 0.082608 0.952859
vt 0.024444 0.952859
vt 0.325517 0.537375
vt 0.325517 0.546790
vt 0.428821 0.715641
vt 0.428821 0.706324
vt 0.260139 0.790919
vt 0.293760 0.839430
vt 0.260139 0.839430
vt 0.077969 0.952244
vt 0.077969 0.876847
vt 0.136748 0.876847
vt 0.136748 0.952244
vt 0.486992 0.715641
vt 0.486992 0.706324
vt 0.016726 0.884643
vt 0.013998 0.884643
vt 0.140772 0.943543
vt 0.140772 0.952859
vt 0.419561 0.951037
vt 0.476201 0.951037
vt 0.476201 0.960109
vt 0.419561 0.960109
vt 0.373967 0.717088
vt 0.424738 0.717088
vt 0.424738 0.790345
vt 0.373967 0.790345
vt 0.198935 0.943543
vt 0.198935 0.952859
vt 0.263924 0.835940
vt 0.229861 0.835940
vt 0.257099 0.943543
vt 0.257099 0.952859
vt 0.009516 0.729116
vt 0.062852 0.729116
vt 0.062852 0.806073
vt 0.009516 0.806073
vt 0.293052 0.556168
vt 0.256717 0.523889
vt 0.280953 0.481079
vt 0.301306 0.515726
vt 0.195797 0.835940
vt 0.161734 0.835940
vt 0.196079 0.444492
vt 0.168560 0.404835
vt 0.195241 0.380761
vt 0.221023 0.406940
vt 0.450195 0.782226
vt 0.254307 0.790259
vt 0.415375 0.782226
vt 0.380556 0.782226
vt 0.025481 0.786790
vt 0.022729 0.786790
vt 0.196136 0.790259
vt 0.631603 0.864571
vt 0.137965 0.790259
vt 0.079720 0.878383
vt 0.023080 0.878383
vt 0.253088 0.787202
vt 0.079793 0.790259
vt 0.084258 0.787202
vt 0.024792 0.790919
vt 0.022047 0.790919
vt 0.118024 0.787202
vt 0.193001 0.878383
vt 0.136360 0.878383
vt 0.151790 0.787202
vt 0.306281 0.878383
vt 0.249641 0.878383
vt 0.185556 0.787202
vt 0.219322 0.787202
vt 0.476201 0.878383
vt 0.419561 0.878383
vt 0.489425 0.876847
vt 0.430645 0.876847
vt 0.058413 0.790919
vt 0.092034 0.790919
vt 0.024444 0.868935
vt 0.125655 0.790919
vt 0.313086 0.876847
vt 0.254307 0.876847
vt 0.021622 0.790259
vt 0.159276 0.790919
vt 0.195528 0.876847
vt 0.192897 0.790919
vt 0.226518 0.790919
vt 0.625789 0.690093
vt 0.619935 0.697981
vt 0.019190 0.876847
vt 0.489754 0.868935
vt 0.621084 0.847618
vt 0.625789 0.853222
vt 0.059545 0.786790
vt 0.370822 0.981494
vt 0.372798 0.981494
vt 0.372798 0.984261
vt 0.370822 0.984261
vt 0.175215 0.704844
vt 0.177171 0.704844
vt 0.177171 0.707638
vt 0.175215 0.707638
vt 0.169523 0.729116
vt 0.222859 0.729116
vt 0.222859 0.806073
vt 0.169523 0.806073
vt 0.175215 0.844566
vt 0.177171 0.844566
vt 0.195797 0.885089
vt 0.161734 0.885089
vt 0.370822 0.947262
vt 0.372798 0.947262
vt 0.201377 0.704843
vt 0.201377 0.707638
vt 0.475509 0.717088
vt 0.475509 0.790345
vt 0.125655 0.839430
vt 0.159276 0.839430
vt 0.159276 0.887942
vt 0.125655 0.887942
vt 0.323197 0.717088
vt 0.323197 0.790345
vt 0.297987 0.835940
vt 0.297987 0.885089
vt 0.263924 0.885089
vt 0.092034 0.839430
vt 0.092034 0.887942
vt 0.221655 0.717088
vt 0.272426 0.717088
vt 0.272426 0.790345
vt 0.221655 0.790345
vt 0.485014 0.832467
vt 0.487828 0.832467
vt 0.487828 0.882707
vt 0.485014 0.882707
vt 0.058413 0.839430
vt 0.058413 0.887942
vt 0.380556 0.832467
vt 0.415375 0.832467
vt 0.415375 0.882707
vt 0.380556 0.882707
vt 0.370822 0.844566
vt 0.372798 0.844566
vt 0.372798 0.878798
vt 0.370822 0.878798
vt 0.372798 0.913030
vt 0.370822 0.913030
vt 0.177171 0.741870
vt 0.175215 0.741870
vt 0.177171 0.776102
vt 0.175215 0.776102
vt 0.177171 0.810334
vt 0.175215 0.810334
vt 0.024792 0.839430
vt 0.024792 0.887942
vt 0.310917 0.832467
vt 0.345737 0.832467
vt 0.345737 0.882707
vt 0.310917 0.882707
vt 0.300768 0.835940
vt 0.300768 0.885089
vt 0.305487 0.522419
vt 0.305528 0.474399
vt 0.337595 0.474587
vt 0.337720 0.522453
vt 0.084258 0.835923
vt 0.118024 0.835923
vt 0.059545 0.835940
vt 0.025481 0.835940
vt 0.151790 0.835923
vt 0.127671 0.835940
vt 0.185556 0.835923
vt 0.289610 0.835923
vt 0.286853 0.835923
vt 0.219322 0.835923
vt 0.241279 0.832467
vt 0.206459 0.832467
vt 0.253088 0.835923
vt 0.296477 0.839430
vt 0.296768 0.557669
vt 0.287393 0.604075
vt 0.283677 0.602573
vt 0.197298 0.601671
vt 0.225739 0.600858
vt 0.226006 0.641979
vt 0.199501 0.642455
vt 0.203617 0.832467
vt 0.079720 0.951037
vt 0.136360 0.951037
vt 0.192897 0.839430
vt 0.489425 0.952244
vt 0.489425 0.961659
vt 0.450195 0.832467
vt 0.226518 0.839430
vt 0.374907 0.374710
vt 0.374907 0.420912
vt 0.341573 0.420912
vt 0.341573 0.374710
vt 0.022729 0.835940
vt 0.254307 0.952244
vt 0.373427 0.943543
vt 0.431590 0.943543
vt 0.315263 0.943543
vt 0.022047 0.839430
vt 0.249790 0.704843
vt 0.249790 0.707638
vt 0.306281 0.951037
vt 0.193001 0.951037
vt 0.249641 0.951037
vt 0.640912 0.688337
vt 0.643850 0.698222
vt 0.619469 0.783167
vt 0.612836 0.781211
vt 0.629633 0.961675
vt 0.625094 0.968931
vt 0.619203 0.883202
vt 0.624486 0.882540
vt 0.565929 0.966633
vt 0.563077 0.973908
vt 0.535001 0.890317
vt 0.540502 0.888235
vt 0.532467 0.784137
vt 0.525917 0.784204
vt 0.532481 0.688511
vt 0.537298 0.698742
vt 0.050492 0.884643
vt 0.050492 0.933364
vt 0.016726 0.933364
vt 0.450195 0.882707
vt 0.485014 0.932948
vt 0.450195 0.932948
vt 0.062852 0.883031
vt 0.009516 0.883031
vt 0.272426 0.863601
vt 0.221655 0.863601
vt 0.700196 0.713560
vt 0.694327 0.718422
vt 0.297987 0.934238
vt 0.263924 0.934238
vt 0.018572 0.790345
vt 0.069343 0.790345
vt 0.069343 0.863601
vt 0.018572 0.863601
vt 0.714891 0.877482
vt 0.709803 0.885109
vt 0.700195 0.783402
vt 0.706895 0.784917
vt 0.725069 0.688337
vt 0.728382 0.698161
vt 0.487828 0.932948
vt 0.345737 0.932948
vt 0.310917 0.932948
vt 0.795054 0.691477
vt 0.799804 0.701063
vt 0.792336 0.788893
vt 0.785590 0.789833
vt 0.818047 0.881306
vt 0.814479 0.889430
vt 0.116188 0.729116
vt 0.116188 0.806073
vt 0.489537 0.729116
vt 0.489537 0.806073
vt 0.329530 0.729116
vt 0.329530 0.806073
vt 0.170884 0.717088
vt 0.170884 0.790345
vt 0.276194 0.729116
vt 0.276194 0.806073
vt 0.084258 0.884643
vt 0.120113 0.717088
vt 0.120114 0.790345
vt 0.229861 0.885089
vt 0.118024 0.884643
vt 0.069343 0.717088
vt 0.151790 0.884643
vt 0.022047 0.887942
vt 0.018572 0.717088
vt 0.127671 0.885089
vt 0.222859 0.883031
vt 0.276194 0.883031
vt 0.276194 0.959988
vt 0.222859 0.959988
vt 0.118024 0.933364
vt 0.151790 0.933364
vt 0.151790 0.982084
vt 0.118024 0.982084
vt 0.050492 0.982084
vt 0.016726 0.982084
vt 0.013998 0.933364
vt 0.013998 0.982084
vt 0.169523 0.883031
vt 0.169523 0.959988
vt 0.345737 0.983188
vt 0.450195 0.983188
vt 0.177171 0.947262
vt 0.175215 0.947262
vt 0.175215 0.878798
vt 0.177171 0.878798
vt 0.273997 0.981494
vt 0.273997 0.984261
vt 0.201377 0.984261
vt 0.201377 0.981494
vt 0.475509 0.863601
vt 0.424738 0.863601
vt 0.024792 0.936453
vt 0.022047 0.936453
vt 0.489537 0.883031
vt 0.436201 0.883031
vt 0.780312 0.879968
vt 0.785590 0.890291
vt 0.785590 0.709925
vt 0.779526 0.715119
vt 0.058413 0.936453
vt 0.612836 0.688337
vt 0.606410 0.696818
vt 0.871865 0.688337
vt 0.865537 0.696657
vt 0.159276 0.936453
vt 0.125655 0.936453
vt 0.607859 0.946385
vt 0.612836 0.951652
vt 0.161734 0.934238
vt 0.127671 0.934238
vt 0.170884 0.863601
vt 0.695065 0.963001
vt 0.700195 0.973053
vt 0.866736 0.860696
vt 0.871865 0.866845
vt 0.300768 0.934238
vt 0.175215 0.981494
vt 0.177171 0.981494
vt 0.177171 0.984261
vt 0.175215 0.984261
vt 0.346616 0.704843
vt 0.370822 0.704843
vt 0.370822 0.707638
vt 0.346616 0.707638
vt 0.372798 0.704843
vt 0.372798 0.707638
vt 0.273997 0.704843
vt 0.273997 0.707638
vt 0.372798 0.741870
vt 0.370822 0.741870
vt 0.370822 0.810334
vt 0.372798 0.810334
vt 0.058413 0.984964
vt 0.024792 0.984964
vt 0.161734 0.983388
vt 0.127671 0.983388
vt 0.159276 0.984964
vt 0.125655 0.984964
vt 0.310917 0.983188
vt 0.300768 0.983388
vt 0.297987 0.983388
vt 0.221655 0.936858
vt 0.170884 0.936858
vt 0.272426 0.936858
vt 0.487828 0.983188
vt 0.485014 0.983188
vt 0.069343 0.936858
vt 0.018572 0.936858
vt 0.475509 0.936858
vt 0.424738 0.936858
vt 0.263924 0.983388
vt 0.062852 0.959988
vt 0.009516 0.959988
vt 0.489537 0.959988
vt 0.436201 0.959988
vt 0.022047 0.984964
vt 0.254125 0.600754
vt 0.253158 0.641566
vt 0.279273 0.641154
vt 0.277157 0.637464
vt 0.306281 0.960109
vt 0.489754 0.943543
vt 0.195528 0.952244
vt 0.023080 0.951037
vt 0.019190 0.952244
vt 0.340483 0.426323
vt 0.341438 0.474503
vt 0.336518 0.426839
vt 0.335865 0.386684
vt 0.333232 0.390021
vt 0.341559 0.522443
vt 0.341573 0.570408
vt 0.337731 0.570410
vt 0.307442 0.380592
vt 0.308636 0.374710
vt 0.305861 0.426458
vt 0.305487 0.570410
vt 0.266738 0.537375
vt 0.266738 0.546790
vt 0.207958 0.546790
vt 0.207958 0.537375
vt 0.149179 0.537375
vt 0.149179 0.546790
vt 0.374907 0.467114
vt 0.374907 0.513316
vt 0.341573 0.513316
vt 0.341573 0.467114
vt 0.374907 0.559518
vt 0.341573 0.559518
vt 0.195318 0.374710
vt 0.223943 0.401546
vt 0.254904 0.439580
vt 0.251895 0.444378
vt 0.283887 0.477041
vt 0.305487 0.514512
vt 0.165856 0.398464
vt 0.225885 0.484378
vt 0.253358 0.645801
vt 0.226035 0.646301
vt 0.199319 0.646385
vt 0.176219 0.641353
vt 0.177942 0.638031
vt 0.168216 0.609662
vt 0.165856 0.611289
s 0
g Plane_Material
usemtl Material
f 14/1/1 6/2/1 4/3/1 13/4/1
f 54/5/1 40/6/1 6/2/1 14/1/1
f 16/7/1 3/8/1 7/9/1 15/10/1
f 1/11/1 9/12/1 12/13/1 8/14/1
f 39/15/1 47/16/1 11/17/1 5/18/1
f 5/18/1 11/17/1 10/19/1 2/20/1
f 89/21/1 16/7/1 15/10/1 116/22/1
f 236/23/1 54/5/1 14/1/1 109/24/1
f 109/24/1 14/1/1 13/4/1 102/25/1
f 117/26/2 118/27/2 292/28/2 291/29/2
f 68/30/3 69/31/3 274/32/3 273/33/3
f 143/34/4 144/35/4 264/36/4 314/37/4
f 144/35/4 28/38/4 256/39/4 264/36/4
f 29/40/2 117/26/2 291/29/2 265/41/2
f 26/42/3 68/30/3 273/33/3 252/43/3
f 142/44/4 143/34/4 314/37/4 313/45/4
f 193/46/5 137/47/5 27/48/5 82/49/5
f 71/50/2 85/51/2 288/52/2 276/53/2
f 39/54/6 5/55/6 19/56/6 67/57/6
f 2/58/4 10/59/4 30/60/4 20/61/4
f 5/55/6 2/62/6 20/63/6 19/56/6
f 1/64/6 8/65/6 25/66/6 18/67/6
f 4/68/3 6/69/3 26/42/3 22/70/3
f 13/71/4 4/72/4 22/73/4 21/74/4
f 3/75/2 16/76/2 29/40/2 24/77/2
f 7/78/3 3/79/3 24/80/3 23/81/3
f 95/82/2 9/83/2 17/84/2 123/85/2
f 102/86/4 13/71/4 21/74/4 130/87/4
f 9/83/2 1/88/2 18/89/2 17/84/2
f 46/90/3 7/78/3 23/81/3 74/91/3
f 6/69/3 40/92/3 68/30/3 26/42/3
f 40/92/3 41/93/3 69/31/3 68/30/3
f 41/93/3 42/94/3 70/95/3 69/31/3
f 42/94/3 43/96/3 71/97/3 70/95/3
f 43/96/3 44/98/3 72/99/3 71/97/3
f 44/98/3 45/100/3 73/101/3 72/99/3
f 45/100/3 46/90/3 74/91/3 73/101/3
f 8/65/6 33/102/6 61/103/6 25/66/6
f 33/102/6 34/104/6 62/105/6 61/103/6
f 34/104/6 35/106/6 63/107/6 62/105/6
f 35/106/6 36/108/6 64/109/6 63/107/6
f 36/108/6 37/110/6 65/111/6 64/109/6
f 37/110/6 38/112/6 66/113/6 65/111/6
f 38/112/6 39/54/6 67/57/6 66/113/6
f 144/114/5 151/115/5 88/116/5 28/117/5
f 151/115/5 158/118/5 87/119/5 88/116/5
f 158/118/5 165/120/5 86/121/5 87/119/5
f 165/120/5 172/122/5 85/123/5 86/121/5
f 172/122/5 179/124/5 84/125/5 85/123/5
f 179/124/5 186/126/5 83/127/5 84/125/5
f 186/126/5 193/46/5 82/49/5 83/127/5
f 27/128/2 137/129/2 263/130/2 253/131/2
f 66/113/6 67/57/6 251/132/6 272/133/6
f 141/134/4 142/44/4 313/45/4 312/135/4
f 86/136/4 72/137/4 277/138/4 289/139/4
f 64/140/5 65/141/5 77/142/5 78/143/5
f 130/87/4 21/74/4 247/144/4 262/145/4
f 65/111/6 66/113/6 272/133/6 271/146/6
f 140/147/4 141/134/4 312/135/4 311/148/4
f 139/149/4 140/147/4 311/148/4 310/150/4
f 81/151/3 32/152/3 260/153/3 261/154/3
f 86/136/5 85/51/5 71/50/5 72/137/5
f 63/107/6 64/109/6 270/155/6 269/156/6
f 138/157/4 139/149/4 310/150/4 309/158/4
f 62/105/6 63/107/6 269/156/6 268/159/6
f 116/22/1 15/10/1 60/160/1 194/161/1
f 194/161/1 60/160/1 59/162/1 201/163/1
f 201/163/1 59/162/1 58/164/1 208/165/1
f 208/165/1 58/164/1 57/166/1 215/167/1
f 215/167/1 57/166/1 56/168/1 222/169/1
f 222/169/1 56/168/1 55/170/1 229/171/1
f 229/171/1 55/170/1 54/5/1 236/23/1
f 8/14/1 12/13/1 53/172/1 33/173/1
f 33/173/1 53/172/1 52/174/1 34/175/1
f 34/175/1 52/174/1 51/176/1 35/177/1
f 35/177/1 51/176/1 50/178/1 36/179/1
f 36/179/1 50/178/1 49/180/1 37/181/1
f 37/181/1 49/180/1 48/182/1 38/183/1
f 38/183/1 48/182/1 47/16/1 39/15/1
f 15/10/1 7/9/1 46/184/1 60/160/1
f 60/160/1 46/184/1 45/185/1 59/162/1
f 59/162/1 45/185/1 44/186/1 58/164/1
f 58/164/1 44/186/1 43/187/1 57/166/1
f 57/166/1 43/187/1 42/188/1 56/168/1
f 56/168/1 42/188/1 41/189/1 55/170/1
f 55/170/1 41/189/1 40/6/1 54/5/1
f 48/182/1 235/190/1 242/191/1 47/16/1
f 235/190/1 234/192/1 241/193/1 242/191/1
f 234/192/1 233/194/1 240/195/1 241/193/1
f 233/194/1 232/196/1 239/197/1 240/195/1
f 232/196/1 231/198/1 238/199/1 239/197/1
f 231/198/1 230/200/1 237/201/1 238/199/1
f 230/200/1 229/171/1 236/23/1 237/201/1
f 49/180/1 228/202/1 235/190/1 48/182/1
f 228/202/1 227/203/1 234/192/1 235/190/1
f 227/203/1 226/204/1 233/194/1 234/192/1
f 226/204/1 225/205/1 232/196/1 233/194/1
f 225/205/1 224/206/1 231/198/1 232/196/1
f 224/206/1 223/207/1 230/200/1 231/198/1
f 223/207/1 222/169/1 229/171/1 230/200/1
f 50/178/1 221/208/1 228/202/1 49/180/1
f 221/208/1 220/209/1 227/203/1 228/202/1
f 220/209/1 219/210/1 226/204/1 227/203/1
f 219/210/1 218/211/1 225/205/1 226/204/1
f 218/211/1 217/212/1 224/206/1 225/205/1
f 217/212/1 216/213/1 223/207/1 224/206/1
f 216/213/1 215/167/1 222/169/1 223/207/1
f 51/176/1 214/214/1 221/208/1 50/178/1
f 214/214/1 213/215/1 220/209/1 221/208/1
f 213/215/1 212/216/1 219/210/1 220/209/1
f 212/216/1 211/217/1 218/211/1 219/210/1
f 211/217/1 210/218/1 217/212/1 218/211/1
f 210/218/1 209/219/1 216/213/1 217/212/1
f 209/219/1 208/165/1 215/167/1 216/213/1
f 52/174/1 207/220/1 214/214/1 51/176/1
f 207/220/1 206/221/1 213/215/1 214/214/1
f 206/221/1 205/222/1 212/216/1 213/215/1
f 205/222/1 204/223/1 211/217/1 212/216/1
f 204/223/1 203/224/1 210/218/1 211/217/1
f 203/224/1 202/225/1 209/219/1 210/218/1
f 202/225/1 201/163/1 208/165/1 209/219/1
f 53/172/1 200/226/1 207/220/1 52/174/1
f 200/226/1 199/227/1 206/221/1 207/220/1
f 199/227/1 198/228/1 205/222/1 206/221/1
f 198/228/1 197/229/1 204/223/1 205/222/1
f 197/229/1 196/230/1 203/224/1 204/223/1
f 196/230/1 195/231/1 202/225/1 203/224/1
f 195/231/1 194/161/1 201/163/1 202/225/1
f 12/13/1 110/232/1 200/226/1 53/172/1
f 110/232/1 111/233/1 199/227/1 200/226/1
f 111/233/1 112/234/1 198/228/1 199/227/1
f 112/234/1 113/235/1 197/229/1 198/228/1
f 113/235/1 114/236/1 196/230/1 197/229/1
f 114/236/1 115/237/1 195/231/1 196/230/1
f 115/237/1 116/22/1 194/161/1 195/231/1
f 76/238/5 75/239/5 187/240/5 180/241/5
f 180/241/5 187/240/5 188/242/5 181/243/5
f 181/244/5 188/245/5 189/246/5 182/247/5
f 182/247/5 189/246/5 190/248/5 183/249/5
f 183/250/5 190/251/5 191/252/5 184/253/5
f 184/253/5 191/252/5 192/254/5 185/255/5
f 185/256/5 192/257/5 193/46/5 186/126/5
f 77/258/5 76/238/5 180/241/5 173/259/5
f 173/259/5 180/241/5 181/243/5 174/260/5
f 174/261/5 181/244/5 182/247/5 175/262/5
f 175/262/5 182/247/5 183/249/5 176/263/5
f 176/264/5 183/250/5 184/253/5 177/265/5
f 177/265/5 184/253/5 185/255/5 178/266/5
f 178/267/5 185/256/5 186/126/5 179/124/5
f 78/268/5 77/258/5 173/259/5 166/269/5
f 166/269/5 173/259/5 174/260/5 167/270/5
f 167/271/5 174/261/5 175/262/5 168/272/5
f 168/272/5 175/262/5 176/263/5 169/273/5
f 169/274/5 176/264/5 177/265/5 170/275/5
f 170/275/5 177/265/5 178/266/5 171/276/5
f 171/277/5 178/267/5 179/124/5 172/122/5
f 79/278/5 78/268/5 166/269/5 159/279/5
f 159/279/5 166/269/5 167/270/5 160/280/5
f 160/281/5 167/271/5 168/272/5 161/282/5
f 161/282/5 168/272/5 169/273/5 162/283/5
f 162/284/5 169/274/5 170/275/5 163/285/5
f 163/285/5 170/275/5 171/276/5 164/286/5
f 164/287/5 171/277/5 172/122/5 165/120/5
f 80/288/5 79/278/5 159/279/5 152/289/5
f 152/289/5 159/279/5 160/280/5 153/290/5
f 153/291/5 160/281/5 161/282/5 154/292/5
f 154/292/5 161/282/5 162/283/5 155/293/5
f 155/294/5 162/284/5 163/285/5 156/295/5
f 156/295/5 163/285/5 164/286/5 157/296/5
f 157/297/5 164/287/5 165/120/5 158/118/5
f 81/298/5 80/288/5 152/289/5 145/299/5
f 145/299/5 152/289/5 153/290/5 146/300/5
f 146/301/5 153/291/5 154/292/5 147/302/5
f 147/302/5 154/292/5 155/293/5 148/303/5
f 148/304/5 155/294/5 156/295/5 149/305/5
f 149/305/5 156/295/5 157/296/5 150/306/5
f 150/307/5 157/297/5 158/118/5 151/115/5
f 32/308/5 81/298/5 145/299/5 138/309/5
f 138/309/5 145/299/5 146/300/5 139/310/5
f 139/311/5 146/301/5 147/302/5 140/312/5
f 140/312/5 147/302/5 148/303/5 141/313/5
f 141/314/5 148/304/5 149/305/5 142/315/5
f 142/315/5 149/305/5 150/306/5 143/316/5
f 143/317/5 150/307/5 151/115/5 144/114/5
f 10/59/4 96/318/4 124/319/4 30/60/4
f 96/318/4 97/320/4 125/321/4 124/319/4
f 97/320/4 98/322/4 126/323/4 125/321/4
f 98/322/4 99/324/4 127/325/4 126/323/4
f 99/324/4 100/326/4 128/327/4 127/325/4
f 100/326/4 101/328/4 129/329/4 128/327/4
f 101/328/4 102/86/4 130/87/4 129/329/4
f 16/76/2 89/330/2 117/26/2 29/40/2
f 89/330/2 90/331/2 118/27/2 117/26/2
f 90/331/2 91/332/2 119/333/2 118/27/2
f 91/332/2 92/334/2 120/335/2 119/333/2
f 92/334/2 93/336/2 121/337/2 120/335/2
f 93/336/2 94/338/2 122/339/2 121/337/2
f 94/338/2 95/82/2 123/85/2 122/339/2
f 32/340/4 138/157/4 309/158/4 260/341/4
f 61/103/6 62/105/6 268/159/6 267/342/6
f 137/129/2 136/343/2 308/344/2 263/130/2
f 88/345/6 87/346/6 290/347/6 266/348/6
f 77/142/2 65/141/2 271/349/2 281/350/2
f 25/66/6 61/103/6 267/342/6 255/351/6
f 136/343/2 135/352/2 307/353/2 308/344/2
f 75/239/5 31/354/5 131/355/5 187/240/5
f 187/240/5 131/355/5 132/356/5 188/242/5
f 188/245/5 132/357/5 133/358/5 189/246/5
f 189/246/5 133/358/5 134/359/5 190/248/5
f 190/251/5 134/360/5 135/361/5 191/252/5
f 191/252/5 135/361/5 136/362/5 192/254/5
f 192/257/5 136/363/5 137/47/5 193/46/5
f 87/346/6 86/364/6 289/365/6 290/347/6
f 64/140/4 78/143/4 282/366/4 270/367/4
f 20/61/4 30/60/4 258/368/4 246/369/4
f 135/352/2 134/370/2 306/371/2 307/353/2
f 123/85/2 17/84/2 243/372/2 257/373/2
f 134/370/2 133/374/2 305/375/2 306/371/2
f 85/376/6 84/377/6 287/378/6 288/379/6
f 11/17/1 103/380/1 96/381/1 10/19/1
f 103/380/1 104/382/1 97/383/1 96/381/1
f 104/382/1 105/384/1 98/385/1 97/383/1
f 105/384/1 106/386/1 99/387/1 98/385/1
f 106/386/1 107/388/1 100/389/1 99/387/1
f 107/388/1 108/390/1 101/391/1 100/389/1
f 108/390/1 109/24/1 102/25/1 101/391/1
f 47/16/1 242/191/1 103/380/1 11/17/1
f 242/191/1 241/193/1 104/382/1 103/380/1
f 241/193/1 240/195/1 105/384/1 104/382/1
f 240/195/1 239/197/1 106/386/1 105/384/1
f 239/197/1 238/199/1 107/388/1 106/386/1
f 238/199/1 237/201/1 108/390/1 107/388/1
f 237/201/1 236/23/1 109/24/1 108/390/1
f 9/12/1 95/392/1 110/232/1 12/13/1
f 95/392/1 94/393/1 111/233/1 110/232/1
f 94/393/1 93/394/1 112/234/1 111/233/1
f 93/394/1 92/395/1 113/235/1 112/234/1
f 92/395/1 91/396/1 114/236/1 113/235/1
f 91/396/1 90/397/1 115/237/1 114/236/1
f 90/397/1 89/21/1 116/22/1 115/237/1
f 275/398/3 276/399/3 346/400/3 345/401/3
f 287/402/4 275/403/4 345/404/4 355/405/4
f 310/150/4 311/148/4 379/406/4 378/407/4
f 276/53/2 288/52/2 356/408/2 346/409/2
f 309/158/4 310/150/4 378/407/4 377/410/4
f 248/411/3 252/43/3 324/412/3 320/413/3
f 289/139/4 277/138/4 347/414/4 357/415/4
f 260/341/4 309/158/4 377/410/4 332/416/4
f 251/132/6 245/417/6 317/418/6 323/419/6
f 267/420/5 268/421/5 284/422/5 261/423/5
f 268/421/5 269/424/5 283/425/5 284/422/5
f 252/43/3 273/33/3 344/426/3 324/412/3
f 278/427/2 290/428/2 358/429/2 348/430/2
f 272/431/5 251/432/5 279/433/5 280/434/5
f 263/130/2 308/344/2 376/435/2 335/436/2
f 266/437/5 290/428/5 278/427/5 254/438/5
f 249/439/3 250/440/3 322/441/3 321/442/3
f 266/437/4 254/438/4 326/443/4 338/444/4
f 287/402/5 286/445/5 274/446/5 275/403/5
f 286/445/5 285/447/5 273/448/5 274/446/5
f 308/344/2 307/353/2 375/449/2 376/435/2
f 247/144/4 248/450/4 320/451/4 319/452/4
f 271/146/6 272/133/6 343/453/6 342/454/6
f 279/433/2 251/432/2 323/455/2 349/456/2
f 307/353/2 306/371/2 374/457/2 375/449/2
f 245/417/6 246/458/6 318/459/6 317/418/6
f 269/156/6 270/155/6 341/460/6 340/461/6
f 272/431/4 280/434/4 350/462/4 343/463/4
f 306/371/2 305/375/2 373/464/2 374/457/2
f 243/372/2 244/465/2 316/466/2 315/467/2
f 281/350/2 271/349/2 342/468/2 351/469/2
f 305/375/2 304/470/2 372/471/2 373/464/2
f 270/367/4 282/366/4 352/472/4 341/473/4
f 304/470/2 303/474/2 371/475/2 372/471/2
f 24/77/2 29/40/2 265/41/2 250/476/2
f 69/31/3 70/95/3 275/398/3 274/32/3
f 118/27/2 119/333/2 293/477/2 292/28/2
f 70/95/3 71/97/3 276/399/3 275/398/3
f 119/333/2 120/335/2 294/478/2 293/477/2
f 28/479/6 88/345/6 266/348/6 256/480/6
f 120/335/2 121/337/2 295/481/2 294/478/2
f 72/99/3 73/101/3 278/482/3 277/483/3
f 121/337/2 122/339/2 296/484/2 295/481/2
f 73/101/3 74/91/3 254/485/3 278/482/3
f 122/339/2 123/85/2 257/373/2 296/484/2
f 31/486/3 75/487/3 279/488/3 259/489/3
f 30/60/4 124/319/4 297/490/4 258/368/4
f 17/84/2 18/89/2 244/465/2 243/372/2
f 75/487/3 76/491/3 280/492/3 279/488/3
f 124/319/4 125/321/4 298/493/4 297/490/4
f 19/56/6 20/63/6 246/458/6 245/417/6
f 76/491/3 77/494/3 281/495/3 280/492/3
f 125/321/4 126/323/4 299/496/4 298/493/4
f 21/74/4 22/73/4 248/450/4 247/144/4
f 126/323/4 127/325/4 300/497/4 299/496/4
f 23/81/3 24/80/3 250/440/3 249/439/3
f 78/498/3 79/499/3 283/500/3 282/501/3
f 127/325/4 128/327/4 301/502/4 300/497/4
f 67/57/6 19/56/6 245/417/6 251/132/6
f 79/499/3 80/503/3 284/504/3 283/500/3
f 128/327/4 129/329/4 302/505/4 301/502/4
f 22/70/3 26/42/3 252/43/3 248/411/3
f 80/503/3 81/151/3 261/154/3 284/504/3
f 129/329/4 130/87/4 262/145/4 302/505/4
f 82/506/6 27/507/6 253/508/6 285/509/6
f 131/510/2 31/511/2 259/512/2 303/474/2
f 74/91/3 23/81/3 249/439/3 254/485/3
f 83/513/6 82/506/6 285/509/6 286/514/6
f 132/515/2 131/510/2 303/474/2 304/470/2
f 18/67/6 25/66/6 255/351/6 244/516/6
f 84/377/6 83/513/6 286/514/6 287/378/6
f 133/374/2 132/515/2 304/470/2 305/375/2
f 579/517/6 561/518/6 406/519/6 396/520/6
f 337/521/2 359/522/2 427/523/2 405/524/2
f 583/525/1 585/526/1 597/526/1 596/525/1
f 422/527/5 412/528/5 413/529/5 423/530/5
f 580/531/1 579/532/1 594/532/1 598/531/1
f 322/533/2 337/521/2 405/524/2 390/534/2
f 584/535/6 422/536/6 423/537/6 582/538/6
f 577/539/4 581/540/4 448/541/4 447/542/4
f 581/540/1 583/525/1 596/525/1 595/540/1
f 425/543/6 424/544/6 477/545/6 478/546/6
f 574/547/4 577/539/4 447/542/4 446/548/4
f 576/549/2 562/550/2 403/551/2 393/552/2
f 582/553/4 423/554/4 601/554/4 608/553/4
f 560/555/4 574/547/4 446/548/4 445/556/4
f 334/557/4 319/452/4 387/558/4 402/559/4
f 561/560/6 338/561/6 358/562/6 559/563/6
f 564/564/4 560/555/4 445/556/4 400/565/4
f 390/534/2 405/524/2 461/566/2 454/567/2
f 562/550/2 566/568/2 444/569/2 403/551/2
f 563/570/3 564/571/3 400/572/3 401/573/3
f 419/574/3 420/575/3 474/576/3 473/577/3
f 566/568/2 568/578/2 443/579/2 444/569/2
f 323/419/6 391/580/6 411/581/6 343/453/6
f 568/578/2 570/582/2 442/583/2 443/579/2
f 448/584/4 449/585/4 493/586/4 492/587/4
f 399/588/5 439/589/5 612/590/5 611/591/5
f 342/454/6 410/592/6 409/593/6 341/460/6
f 441/594/5 442/595/5 614/596/5 613/597/5
f 254/485/3 249/439/3 321/442/3 326/598/3
f 311/148/4 312/135/4 380/599/4 379/406/4
f 277/483/3 278/482/3 348/600/3 347/601/3
f 244/516/6 255/351/6 327/602/6 316/603/6
f 312/135/4 313/45/4 381/604/4 380/599/4
f 273/448/2 285/447/2 354/437/2 344/605/2
f 313/45/4 314/37/4 382/606/4 381/604/4
f 265/41/2 291/29/2 359/522/2 337/521/2
f 259/489/3 279/488/3 349/607/3 331/608/3
f 257/373/2 243/372/2 315/467/2 329/609/2
f 314/37/4 264/36/4 336/610/4 382/606/4
f 291/29/2 292/28/2 360/611/2 359/522/2
f 246/369/4 258/368/4 330/612/4 318/613/4
f 292/28/2 293/477/2 361/614/2 360/611/2
f 280/492/3 281/495/3 351/615/3 350/616/3
f 293/477/2 294/478/2 362/617/2 361/614/2
f 282/501/3 283/500/3 353/618/3 352/619/3
f 294/478/2 295/481/2 363/620/2 362/617/2
f 295/481/2 296/484/2 364/621/2 363/620/2
f 261/154/3 260/153/3 332/622/3 333/623/3
f 296/484/2 257/373/2 329/609/2 364/621/2
f 285/509/6 253/508/6 325/624/6 354/625/6
f 258/368/4 297/490/4 365/626/4 330/612/4
f 262/145/4 247/144/4 319/452/4 334/557/4
f 297/490/4 298/493/4 366/627/4 365/626/4
f 253/131/2 263/130/2 335/436/2 325/628/2
f 298/493/4 299/496/4 367/629/4 366/627/4
f 288/379/6 287/378/6 355/630/6 356/631/6
f 264/36/4 256/39/4 328/632/4 336/610/4
f 299/496/4 300/497/4 368/633/4 367/629/4
f 290/347/6 289/365/6 357/634/6 358/562/6
f 250/476/2 265/41/2 337/521/2 322/533/2
f 300/497/4 301/502/4 369/635/4 368/633/4
f 301/502/4 302/505/4 370/636/4 369/635/4
f 267/420/4 261/423/4 333/637/4 339/638/4
f 256/480/6 266/348/6 338/561/6 328/639/6
f 302/505/4 262/145/4 334/557/4 370/636/4
f 303/474/2 259/512/2 331/640/2 371/475/2
f 283/425/2 269/424/2 340/641/2 353/642/2
f 255/351/6 267/342/6 339/643/6 327/602/6
f 393/644/5 387/645/5 388/646/5 392/647/5
f 422/527/5 393/644/5 392/647/5 412/528/5
f 423/530/4 413/529/4 467/529/4 476/530/4
f 384/648/5 395/649/5 400/650/5 383/651/5
f 404/652/4 396/653/4 457/654/4 460/655/4
f 430/656/6 448/657/6 492/657/6 483/656/6
f 409/593/6 410/592/6 465/658/6 464/659/6
f 403/660/5 402/661/5 387/645/5 393/644/5
f 395/649/5 407/662/5 401/663/5 400/650/5
f 420/575/3 421/664/3 475/665/3 474/576/3
f 435/666/4 436/667/4 487/668/4 486/669/4
f 418/670/3 419/574/3 473/577/3 472/671/3
f 391/580/6 385/672/6 451/673/6 455/674/6
f 434/675/4 435/666/4 486/669/4 485/676/4
f 399/677/3 417/678/3 471/679/3 459/680/3
f 389/681/3 390/682/3 454/683/3 453/684/3
f 433/685/4 434/675/4 485/676/4 484/686/4
f 415/687/3 416/688/3 470/689/3 469/690/3
f 442/691/5 436/692/5 437/693/5 443/694/5
f 443/694/5 437/693/5 438/695/5 444/696/5
f 444/696/5 438/695/5 402/661/5 403/660/5
f 383/651/5 400/650/5 445/697/5 397/698/5
f 397/698/5 445/697/5 446/699/5 432/700/5
f 432/700/5 446/699/5 447/701/5 431/702/5
f 431/702/5 447/701/5 448/657/5 430/656/5
f 398/703/4 433/685/4 484/686/4 458/704/4
f 413/705/3 414/706/3 468/707/3 467/708/3
f 385/672/6 386/709/6 452/710/6 451/673/6
f 404/711/5 450/712/5 593/713/5 589/714/5
f 359/522/2 360/611/2 428/715/2 427/523/2
f 360/611/2 361/614/2 429/716/2 428/715/2
f 327/602/6 339/643/6 407/717/6 395/718/6
f 361/614/2 362/617/2 430/719/2 429/716/2
f 340/461/6 341/460/6 409/593/6 408/720/6
f 362/617/2 363/620/2 431/721/2 430/719/2
f 342/454/6 343/453/6 411/581/6 410/592/6
f 315/467/2 316/466/2 384/722/2 383/723/2
f 363/620/2 364/621/2 432/724/2 431/721/2
f 324/412/3 344/426/3 412/725/3 392/726/3
f 317/418/6 318/459/6 386/709/6 385/672/6
f 364/621/2 329/609/2 397/727/2 432/724/2
f 345/401/3 346/400/3 414/706/3 413/705/3
f 319/452/4 320/451/4 388/728/4 387/558/4
f 330/612/4 365/626/4 433/685/4 398/703/4
f 347/601/3 348/600/3 416/688/3 415/687/3
f 321/442/3 322/441/3 390/682/3 389/681/3
f 365/626/4 366/627/4 434/675/4 433/685/4
f 586/729/3 565/730/3 417/731/3 399/588/3
f 323/419/6 317/418/6 385/672/6 391/580/6
f 366/627/4 367/629/4 435/666/4 434/675/4
f 420/732/5 419/733/5 623/734/5 622/735/5
f 320/413/3 324/412/3 392/726/3 388/736/3
f 367/629/4 368/633/4 436/667/4 435/666/4
f 565/737/1 567/738/1 619/738/1 627/737/1
f 368/633/4 369/635/4 437/739/4 436/667/4
f 584/535/6 576/740/6 393/741/6 422/536/6
f 326/598/3 321/442/3 389/681/3 394/742/3
f 369/635/4 370/636/4 438/743/4 437/739/4
f 423/744/5 424/745/5 602/746/5 601/747/5
f 316/603/6 327/602/6 395/718/6 384/748/6
f 370/636/4 334/557/4 402/559/4 438/743/4
f 578/749/1 582/538/1 608/538/1 604/749/1
f 573/750/1 588/751/1 618/751/1 609/750/1
f 340/461/6 408/720/6 407/717/6 339/643/6
f 329/609/2 315/467/2 383/723/2 397/727/2
f 570/582/1 572/752/1 616/752/1 615/582/1
f 353/642/1 340/641/1 339/638/1 333/637/1
f 318/613/4 330/612/4 398/703/4 386/753/4
f 412/725/3 344/426/3 345/401/3 413/705/3
f 344/605/1 354/437/1 355/405/1 345/404/1
f 414/706/3 346/400/3 347/601/3 415/687/3
f 346/409/1 356/408/1 357/415/1 347/414/1
f 338/444/1 326/443/1 348/430/1 358/429/1
f 326/598/3 394/742/3 416/688/3 348/600/3
f 408/754/5 421/755/5 401/663/5 407/662/5
f 587/756/3 353/618/3 333/623/3 563/570/3
f 569/757/3 351/615/3 352/619/3 571/758/3
f 351/469/1 342/468/1 341/473/1 352/472/1
f 565/737/3 349/607/3 350/616/3 567/738/3
f 349/456/1 323/455/1 343/463/1 350/462/1
f 477/759/5 468/760/5 469/761/5 478/762/5
f 456/763/5 462/764/5 479/765/5 470/766/5
f 455/767/5 471/768/5 472/769/5 466/770/5
f 465/771/5 473/772/5 474/773/5 464/774/5
f 461/566/2 480/775/2 516/776/2 505/777/2
f 476/530/4 467/529/4 509/529/4 514/530/4
f 456/778/3 453/684/3 497/779/3 500/780/3
f 492/587/4 493/586/4 526/781/4 525/782/4
f 459/680/3 471/679/3 511/783/3 503/784/3
f 465/771/5 466/770/5 472/769/5 473/772/5
f 468/760/2 477/759/2 515/785/2 510/786/2
f 479/765/5 478/762/5 469/761/5 470/766/5
f 455/674/6 451/673/6 495/787/6 499/788/6
f 491/789/2 490/790/2 523/791/2 524/792/2
f 488/793/5 484/794/5 485/795/5 489/796/5
f 489/796/5 485/795/5 486/797/5 490/798/5
f 453/684/3 454/683/3 498/799/3 497/779/3
f 467/708/3 468/707/3 510/800/3 509/801/3
f 482/802/5 493/803/5 494/804/5 481/805/5
f 481/805/5 494/804/5 460/806/5 480/807/5
f 449/585/4 450/808/4 494/809/4 493/586/4
f 394/742/3 389/681/3 453/684/3 456/778/3
f 424/544/6 423/810/6 476/811/6 477/545/6
f 405/524/2 427/523/2 480/775/2 461/566/2
f 414/706/3 415/687/3 469/690/3 468/707/3
f 450/808/4 404/652/4 460/655/4 494/809/4
f 426/812/6 425/543/6 478/546/6 479/813/6
f 439/814/2 399/677/2 459/680/2 488/815/2
f 396/653/6 406/816/6 462/817/6 457/654/6
f 427/523/2 428/715/2 481/818/2 480/775/2
f 440/819/2 439/814/2 488/815/2 489/820/2
f 411/581/6 391/580/6 455/674/6 466/821/6
f 428/715/2 429/716/2 482/822/2 481/818/2
f 416/688/3 394/742/3 456/778/3 470/689/3
f 421/755/2 408/754/2 463/754/2 475/755/2
f 441/823/2 440/819/2 489/820/2 490/790/2
f 417/678/3 418/670/3 472/671/3 471/679/3
f 429/716/2 430/719/2 483/824/2 482/822/2
f 406/816/6 426/812/6 479/813/6 462/817/6
f 386/753/4 398/703/4 458/704/4 452/825/4
f 442/826/2 441/823/2 490/790/2 491/789/2
f 408/720/6 409/593/6 464/659/6 463/827/6
f 436/692/3 442/691/3 491/691/3 487/692/3
f 410/592/6 411/581/6 466/821/6 465/658/6
f 501/828/6 506/829/6 538/830/6 533/831/6
f 517/832/2 518/833/2 550/834/2 549/835/2
f 505/777/2 516/776/2 548/836/2 537/837/2
f 498/838/2 505/777/2 537/837/2 530/839/2
f 514/530/4 509/529/4 541/529/4 546/530/4
f 548/836/2 516/776/2 517/832/2 549/835/2
f 504/840/4 501/828/4 533/831/4 536/841/4
f 542/842/3 510/800/3 500/780/3 532/843/3
f 536/844/5 548/845/5 549/846/5 558/847/5
f 547/848/5 542/849/5 532/850/5 538/851/5
f 474/576/3 475/665/3 513/852/3 512/853/3
f 452/825/4 458/704/4 502/854/4 496/855/4
f 477/545/6 476/811/6 514/856/6 515/857/6
f 484/794/3 488/793/3 522/858/3 519/859/3
f 482/822/2 483/824/2 518/833/2 517/832/2
f 475/755/2 463/754/2 507/754/2 513/755/2
f 490/798/6 486/797/6 520/860/6 523/861/6
f 460/655/4 457/654/4 501/828/4 504/840/4
f 458/704/4 484/686/4 519/862/4 502/854/4
f 464/774/4 474/773/4 512/863/4 508/864/4
f 487/692/3 491/691/3 524/691/3 521/692/3
f 454/567/2 461/566/2 505/777/2 498/838/2
f 483/656/6 492/657/6 525/657/6 518/656/6
f 493/803/3 482/802/3 517/865/3 526/866/3
f 457/654/6 462/817/6 506/829/6 501/828/6
f 486/669/4 487/668/4 521/867/4 520/868/4
f 471/768/2 455/767/2 499/869/2 511/870/2
f 463/827/6 464/659/6 508/871/6 507/872/6
f 488/815/2 459/680/2 503/784/2 522/873/2
f 462/764/4 456/763/4 500/874/4 506/875/4
f 480/807/6 460/806/6 504/876/6 516/877/6
f 451/673/6 452/710/6 496/878/6 495/787/6
f 537/879/5 533/880/5 529/881/5 530/882/5
f 531/883/5 527/884/5 535/885/5 543/886/5
f 527/884/5 528/887/5 534/888/5 535/885/5
f 548/845/5 536/844/5 533/880/5 537/879/5
f 539/754/5 540/889/5 544/890/5 545/755/5
f 533/880/5 538/851/5 532/850/5 529/881/5
f 547/848/5 546/530/5 541/529/5 542/849/5
f 535/885/5 534/888/5 551/891/5 554/892/5
f 555/893/5 552/894/5 553/692/5 556/691/5
f 550/656/5 557/657/5 558/847/5 549/846/5
f 502/854/4 519/862/4 551/895/4 534/896/4
f 507/872/6 508/871/6 540/897/6 539/898/6
f 520/868/4 521/867/4 553/899/4 552/900/4
f 509/801/3 510/800/3 542/842/3 541/901/3
f 495/787/6 496/878/6 528/902/6 527/903/6
f 522/873/2 503/784/2 535/904/2 554/905/2
f 503/784/3 511/783/3 543/906/3 535/904/3
f 497/779/3 498/799/3 530/907/3 529/908/3
f 524/792/2 523/791/2 555/909/2 556/910/2
f 512/853/3 513/852/3 545/911/3 544/912/3
f 499/788/6 495/787/6 527/903/6 531/913/6
f 525/782/4 526/781/4 558/914/4 557/915/4
f 515/857/6 514/856/6 546/916/6 547/917/6
f 500/780/3 497/779/3 529/908/3 532/843/3
f 552/894/5 555/893/5 554/892/5 551/891/5
f 513/755/2 507/754/2 539/754/2 545/755/2
f 520/868/4 552/900/4 551/895/4 519/862/4
f 531/883/5 543/886/5 544/890/5 540/889/5
f 496/855/4 502/854/4 534/896/4 528/918/4
f 521/692/3 524/691/3 556/691/3 553/692/3
f 499/788/6 531/913/6 540/897/6 508/871/6
f 518/656/6 525/657/6 557/657/6 550/656/6
f 555/909/2 523/791/2 522/873/2 554/905/2
f 523/861/1 520/860/1 519/859/1 522/858/1
f 543/906/3 511/783/3 512/853/3 544/912/3
f 511/870/1 499/869/1 508/864/1 512/863/1
f 516/877/1 504/876/1 526/866/1 517/865/1
f 504/840/4 536/841/4 558/914/4 526/781/4
f 510/786/1 515/785/1 506/875/1 500/874/1
f 515/857/6 547/917/6 538/830/6 506/829/6
f 419/733/5 418/919/5 620/920/5 623/734/5
f 417/731/4 565/730/4 627/921/4 626/922/4
f 421/923/3 587/756/3 563/570/3 401/573/3
f 372/471/2 371/475/2 588/751/2 573/750/2
f 371/475/2 331/640/2 586/924/2 588/751/2
f 358/562/6 357/634/6 575/925/6 559/563/6
f 356/631/6 355/630/6 582/538/6 578/749/6
f 354/625/6 325/624/6 576/740/6 584/535/6
f 352/619/3 353/618/3 587/756/3 571/758/3
f 350/616/3 351/615/3 569/757/3 567/738/3
f 331/608/3 349/607/3 565/737/3 586/926/3
f 382/606/4 336/610/4 580/531/4 585/526/4
f 373/464/2 372/471/2 573/750/2 572/752/2
f 374/457/2 373/464/2 572/752/2 570/582/2
f 375/449/2 374/457/2 570/582/2 568/578/2
f 376/435/2 375/449/2 568/578/2 566/568/2
f 333/623/3 332/622/3 564/571/3 563/570/3
f 335/436/2 376/435/2 566/568/2 562/550/2
f 332/416/4 377/410/4 560/555/4 564/564/4
f 406/519/2 561/518/2 606/518/2 605/519/2
f 377/410/4 378/407/4 574/547/4 560/555/4
f 356/631/6 578/749/6 575/925/6 357/634/6
f 325/628/2 335/436/2 562/550/2 576/549/2
f 378/407/4 379/406/4 577/539/4 574/547/4
f 336/610/4 328/632/4 579/532/4 580/531/4
f 379/406/4 380/599/4 581/540/4 577/539/4
f 354/625/6 584/535/6 582/538/6 355/630/6
f 380/599/4 381/604/4 583/525/4 581/540/4
f 381/604/4 382/606/4 585/526/4 583/525/4
f 328/639/6 338/561/6 561/560/6 579/927/6
f 596/928/4 597/929/4 593/713/4 592/930/4
f 595/931/4 596/928/4 592/930/4 591/932/4
f 598/933/4 594/934/4 590/935/4 589/714/4
f 597/929/4 598/933/4 589/714/4 593/713/4
f 585/526/1 580/531/1 598/531/1 597/526/1
f 448/936/6 581/937/6 595/931/6 591/932/6
f 449/938/5 448/936/5 591/932/5 592/930/5
f 396/939/5 404/711/5 589/714/5 590/935/5
f 450/712/5 449/938/5 592/930/5 593/713/5
f 579/517/3 396/520/3 590/520/3 594/517/3
f 604/940/6 602/941/6 603/942/6 607/943/6
f 604/940/6 608/553/6 601/554/6 602/941/6
f 599/944/6 607/943/6 603/942/6 600/945/6
f 605/519/6 606/518/6 599/944/6 600/945/6
f 575/925/1 578/749/1 604/749/1 607/925/1
f 425/946/5 426/947/5 600/948/5 603/949/5
f 424/745/5 425/946/5 603/949/5 602/746/5
f 559/563/1 575/925/1 607/925/1 599/563/1
f 426/947/5 406/950/5 605/951/5 600/948/5
f 561/560/1 559/563/1 599/563/1 606/560/1
f 615/952/2 616/953/2 613/597/2 614/596/2
f 616/953/2 609/954/2 610/955/2 613/597/2
f 618/956/2 617/957/2 611/591/2 612/590/2
f 609/954/2 618/956/2 612/590/2 610/955/2
f 586/729/6 399/588/6 611/591/6 617/957/6
f 588/751/1 586/924/1 617/924/1 618/751/1
f 442/595/3 570/958/3 615/952/3 614/596/3
f 439/589/5 440/959/5 610/955/5 612/590/5
f 572/752/1 573/750/1 609/750/1 616/752/1
f 440/959/5 441/594/5 613/597/5 610/955/5
f 619/960/3 628/961/3 623/734/3 620/920/3
f 621/962/3 625/963/3 624/964/3 622/735/3
f 626/922/3 627/921/3 619/960/3 620/920/3
f 623/734/3 628/961/3 621/962/3 622/735/3
f 421/965/5 420/732/5 622/735/5 624/964/5
f 569/757/1 571/758/1 621/758/1 628/757/1
f 418/919/5 417/731/5 626/922/5 620/920/5
f 571/758/1 587/756/1 625/756/1 621/758/1
f 567/738/1 569/757/1 628/757/1 619/738/1
f 587/966/2 421/965/2 624/964/2 625/963/2
